<svg version="1.1" id="Capa_1" xmlns="http://www.w3.org/2000/svg" x="0" y="0" viewBox="0 0 174.239 174.239" xml:space="preserve"><path d="M148.203 68.601h-22.751V38.333C125.452 17.225 108.227 0 87.12 0 65.962 0 48.787 17.225 48.787 38.333v30.268h-22.75c-2.738 0-4.929 2.24-4.929 4.928v95.782c0 2.688 2.19 4.928 4.929 4.928h122.167c2.688 0 4.928-2.24 4.928-4.928V73.529c0-2.688-2.241-4.928-4.929-4.928zm-51.475 59.54h-3.833v5.775h-11.55v-5.775h-3.833v-19.216h19.216v19.216zm8.961-59.54H68.551V38.333c0-10.255 8.314-18.569 18.569-18.569 10.205 0 18.569 8.314 18.569 18.569v30.268z"/></svg>